<svg class="ldi-p8a18u" width="200px"  height="200px"  xmlns="http://www.w3.org/2000/svg" xmlns:xlink="http://www.w3.org/1999/xlink" viewBox="0 0 100 100" preserveAspectRatio="xMidYMid" style="background: none;"><!--?xml version="1.0" encoding="utf-8"?--><!--Generator: Adobe Illustrator 21.0.0, SVG Export Plug-In . SVG Version: 6.00 Build 0)--><svg version="1.1" id="圖層_1" xmlns="http://www.w3.org/2000/svg" xmlns:xlink="http://www.w3.org/1999/xlink" x="0px" y="0px" viewBox="0 0 100 100" style="transform-origin: 50px 50px 0px;" xml:space="preserve" class=""><g class="" style="transform-origin: 50px 50px 0px; transform: scale(0.6);"><g class="" style="transform-origin: 50px 50px 0px;"><style type="text/css" class="ld ld-fade" style="transform-origin: 50px 50px 0px; animation-duration: 1s; animation-delay: -1s;">.st0{fill:#e15b64}.st1{fill:#f47e60}.st2{fill:#f8b26a}.st3{fill:#abbd81}.st4{fill:#a0c8d7}.st5{fill:#ac749c}.st6{fill:#f47e60;stroke:#333}.st10,.st11,.st6,.st7,.st8,.st9{stroke-width:3.5;stroke-linecap:round;stroke-linejoin:round;stroke-miterlimit:10}.st7{opacity:.2;stroke:#000}.st10,.st11,.st8,.st9{fill:none;stroke:#fff}.st10,.st11,.st9{fill:#a0c8d7;stroke:#333}.st10,.st11{fill:#77a4bd}.st11{fill:#e0e0e0}.st12{fill:#fff}.st12,.st13,.st14,.st15,.st16,.st17{stroke:#333;stroke-width:3.5;stroke-miterlimit:10}.st13{stroke-linecap:round;fill:none}.st14,.st15,.st16,.st17{fill:#fff;stroke-linejoin:round}.st15,.st16,.st17{fill:none;stroke-linecap:round}.st16,.st17{fill:#e15b64}.st17{fill:#c33737}.st18{opacity:.2}.st19,.st20{stroke:#000;stroke-width:3.5;stroke-linecap:round;stroke-linejoin:round;stroke-miterlimit:10}.st20{fill:none;stroke:#fff;stroke-width:5}.st21{fill:#333}.st22{fill:#fff}.st23{fill:#333;stroke:#fff;stroke-width:3.5;stroke-miterlimit:10}.st24{opacity:.2;stroke:#000}.st24,.st25,.st26{stroke-width:3.5;stroke-miterlimit:10}.st25{opacity:.2;stroke-linejoin:round;stroke:#000}.st26{fill:#666;stroke:#333}.st27{fill:none;stroke:#333}.st27,.st28,.st29,.st30,.st31,.st32,.st33{stroke-width:3.5;stroke-miterlimit:10}.st28{fill:none;stroke-linecap:round;stroke:#fff}.st29,.st30,.st31,.st32,.st33{stroke:#333;stroke-linejoin:round}.st29{stroke-linecap:round;fill:#849b87}.st30,.st31,.st32,.st33{fill:#e0e0e0}.st31,.st32,.st33{fill:#abbd81;stroke-linecap:round}.st32,.st33{fill:#f5e6c8}.st33{fill:#fff}.st34{fill:#f5e169}.st35{fill:#f5e6c8}.st36,.st37{stroke-linecap:round}.st36{opacity:.2;stroke:#000;stroke-width:3.5;stroke-miterlimit:10}.st37{fill:#666;stroke-linejoin:round}.st37,.st38,.st39,.st40{stroke:#333;stroke-width:3.5;stroke-miterlimit:10}.st38{stroke-linecap:round;stroke-linejoin:round;fill:#333}.st39,.st40{fill:#e15b64}.st40{fill:#f5e169}</style><g class="ld ld-fade" style="transform-origin: 50px 50px 0px; animation-duration: 1s; animation-delay: -0.954545s;"><path class="st0" d="M12.5,38.5c0,1.9,0.2,3.8,0.5,5.7l26.9-26.9C28.8,12.8,12.5,20.1,12.5,38.5z" fill="rgb(225, 91, 100)" style="fill: rgb(225, 91, 100);"></path></g><g class="ld ld-fade" style="transform-origin: 50px 50px 0px; animation-duration: 1s; animation-delay: -0.909091s;"><path class="st1" d="M39.9,17.3L13,44.2c0.8,4.4,2.5,8.4,4.7,12.2l30.7-30.7C46.7,21.5,43.6,18.7,39.9,17.3z" fill="rgb(244, 126, 96)" style="fill: rgb(244, 126, 96);"></path></g><g class="ld ld-fade" style="transform-origin: 50px 50px 0px; animation-duration: 1s; animation-delay: -0.863636s;"><path class="st2" d="M50,33.6c0-3.1-0.6-5.7-1.5-8L17.7,56.4c2.1,3.5,4.6,6.7,7.3,9.6l48.7-48.7C63.1,13.3,50,18.6,50,33.6z" fill="rgb(248, 178, 106)" style="fill: rgb(248, 178, 106);"></path></g><g class="ld ld-fade" style="transform-origin: 50px 50px 0px; animation-duration: 1s; animation-delay: -0.818182s;"><path class="st3" d="M73.8,17.2L25.1,65.9c2.9,3,5.9,5.7,8.9,8l49.4-49.4C80.9,21,77.5,18.6,73.8,17.2z" fill="rgb(171, 189, 129)" style="fill: rgb(171, 189, 129);"></path></g><g class="ld ld-fade" style="transform-origin: 50px 50px 0px; animation-duration: 1s; animation-delay: -0.772727s;"><path class="st4" d="M34,73.9c3.7,2.9,7.2,5.2,10.1,6.8l43.4-43.4c-0.2-5.2-1.8-9.5-4.1-12.8L34,73.9z" fill="rgb(160, 200, 215)" style="fill: rgb(160, 200, 215);"></path></g><g class="ld ld-fade" style="transform-origin: 50px 50px 0px; animation-duration: 1s; animation-delay: -0.727273s;"><path class="st5" d="M50,84c0,0,37.5-17.7,37.5-45.5c0-0.4,0-0.8,0-1.2L44,80.8C47.6,82.9,50,84,50,84z" fill="rgb(172, 116, 156)" style="fill: rgb(172, 116, 156);"></path></g><g class="ld ld-fade" style="transform-origin: 50px 50px 0px; animation-duration: 1s; animation-delay: -0.681818s;"><path class="st35" d="M51.6,42.4l-6.2-0.4c-4.8-0.3-8.6-4.2-8.9-9L36,25.7c0-0.4-0.4-0.8-0.8-0.8H35c-0.4,0-0.8,0.3-0.8,0.8 l-0.4,7.2c-0.3,4.8-4.1,8.7-8.9,9l-6.2,0.4c-0.4,0-0.7,0.3-0.8,0.7c-0.1,0.5,0.3,0.9,0.8,1l6.3,0.4c4.8,0.3,8.6,4.2,8.9,9l0.4,7.2 c0,0.4,0.4,0.8,0.8,0.8h0.2c0.4,0,0.8-0.3,0.8-0.8l0.4-7.2c0.3-4.8,4.1-8.7,8.9-9l6.3-0.4c0.5,0,0.9-0.5,0.8-1 C52.3,42.7,52,42.4,51.6,42.4z" fill="rgb(245, 230, 200)" style="fill: rgb(245, 230, 200);"></path></g><g class="ld ld-fade" style="transform-origin: 50px 50px 0px; animation-duration: 1s; animation-delay: -0.636364s;"><path class="st35" d="M32.3,76.6l-3.7-0.3c-2.9-0.2-5.2-2.5-5.4-5.4l-0.3-4.3c0-0.3-0.2-0.5-0.5-0.5h-0.1c-0.3,0-0.5,0.2-0.5,0.5 l-0.3,4.3c-0.2,2.9-2.5,5.2-5.4,5.4l-3.7,0.3c-0.2,0-0.4,0.2-0.5,0.4c-0.1,0.3,0.2,0.6,0.5,0.6l3.8,0.3c2.9,0.2,5.2,2.5,5.4,5.4 l0.3,4.3c0,0.3,0.2,0.5,0.5,0.5h0.1c0.3,0,0.5-0.2,0.5-0.5l0.3-4.3c0.2-2.9,2.5-5.2,5.4-5.4l3.8-0.3c0.3,0,0.5-0.3,0.5-0.6 C32.7,76.8,32.5,76.6,32.3,76.6z" fill="rgb(245, 230, 200)" style="fill: rgb(245, 230, 200);"></path></g><g class="ld ld-fade" style="transform-origin: 50px 50px 0px; animation-duration: 1s; animation-delay: -0.590909s;"><path class="st35" d="M68.5,69l-2.3-0.2c-1.8-0.1-3.2-1.6-3.4-3.4l-0.2-2.7c0-0.2-0.1-0.3-0.3-0.3h-0.1c-0.2,0-0.3,0.1-0.3,0.3 l-0.2,2.7c-0.1,1.8-1.5,3.3-3.4,3.4L56.1,69c-0.1,0-0.3,0.1-0.3,0.3c0,0.2,0.1,0.4,0.3,0.4l2.4,0.2c1.8,0.1,3.2,1.6,3.4,3.4l0.2,2.7 c0,0.2,0.1,0.3,0.3,0.3h0.1c0.2,0,0.3-0.1,0.3-0.3l0.2-2.7c0.1-1.8,1.5-3.3,3.4-3.4l2.4-0.2c0.2,0,0.3-0.2,0.3-0.4 C68.8,69.1,68.7,69,68.5,69z" fill="rgb(245, 230, 200)" style="fill: rgb(245, 230, 200);"></path></g><g class="ld ld-fade" style="transform-origin: 50px 50px 0px; animation-duration: 1s; animation-delay: -0.545455s;"><path class="st35" d="M84.9,79l-3.5-0.2c-2.7-0.2-4.8-2.3-5-5l-0.2-4c0-0.2-0.2-0.4-0.5-0.4h-0.1c-0.2,0-0.5,0.2-0.5,0.4l-0.2,4 c-0.2,2.7-2.3,4.8-5,5L66.5,79c-0.2,0-0.4,0.2-0.5,0.4c0,0.3,0.2,0.5,0.4,0.5l3.5,0.2c2.7,0.2,4.8,2.3,5,5l0.2,4 c0,0.2,0.2,0.4,0.5,0.4h0.1c0.2,0,0.5-0.2,0.5-0.4l0.2-4c0.2-2.7,2.3-4.8,5-5l3.5-0.2c0.3,0,0.5-0.3,0.4-0.5 C85.3,79.2,85.1,79,84.9,79z" fill="rgb(245, 230, 200)" style="fill: rgb(245, 230, 200);"></path></g><g class="ld ld-fade" style="transform-origin: 50px 50px 0px; animation-duration: 1s; animation-delay: -0.5s;"><path class="st35" d="M21.4,14.3L20,14.2c-1.1-0.1-1.9-0.9-2-2l-0.1-1.6c0-0.1-0.1-0.2-0.2-0.2h0c-0.1,0-0.2,0.1-0.2,0.2l-0.1,1.6 c-0.1,1.1-0.9,1.9-2,2L14,14.3c-0.1,0-0.2,0.1-0.2,0.2c0,0.1,0.1,0.2,0.2,0.2l1.4,0.1c1.1,0.1,1.9,0.9,2,2l0.1,1.6 c0,0.1,0.1,0.2,0.2,0.2h0c0.1,0,0.2-0.1,0.2-0.2l0.1-1.6c0.1-1.1,0.9-1.9,2-2l1.4-0.1c0.1,0,0.2-0.1,0.2-0.2 C21.6,14.3,21.5,14.3,21.4,14.3z" fill="rgb(245, 230, 200)" style="fill: rgb(245, 230, 200);"></path></g><g class="ld ld-fade" style="transform-origin: 50px 50px 0px; animation-duration: 1s; animation-delay: -0.454545s;"><path class="st35" d="M87.8,19.3l-2.3-0.2c-1.8-0.1-3.2-1.6-3.4-3.4L81.9,13c0-0.2-0.1-0.3-0.3-0.3h-0.1c-0.2,0-0.3,0.1-0.3,0.3 l-0.2,2.7c-0.1,1.8-1.5,3.3-3.4,3.4l-2.3,0.2c-0.1,0-0.3,0.1-0.3,0.3c0,0.2,0.1,0.4,0.3,0.4l2.4,0.2c1.8,0.1,3.2,1.6,3.4,3.4 l0.2,2.7c0,0.2,0.1,0.3,0.3,0.3h0.1c0.2,0,0.3-0.1,0.3-0.3l0.2-2.7c0.1-1.8,1.5-3.3,3.4-3.4l2.4-0.2c0.2,0,0.3-0.2,0.3-0.4 C88.1,19.4,88,19.3,87.8,19.3z" fill="rgb(245, 230, 200)" style="fill: rgb(245, 230, 200);"></path></g><metadata xmlns:d="https://loading.io/stock/" class="ld ld-fade" style="transform-origin: 50px 50px 0px; animation-duration: 1s; animation-delay: -0.409091s;">
<d:name class="ld ld-fade" style="transform-origin: 50px 50px 0px; animation-duration: 1s; animation-delay: -0.363636s;">heart</d:name>
<d:tags class="ld ld-fade" style="transform-origin: 50px 50px 0px; animation-duration: 1s; animation-delay: -0.318182s;">heart,love,lgbt,gay,lesbian,homosexual,affection</d:tags>
<d:license class="ld ld-fade" style="transform-origin: 50px 50px 0px; animation-duration: 1s; animation-delay: -0.272727s;">cc-by</d:license>
<d:slug class="ld ld-fade" style="transform-origin: 50px 50px 0px; animation-duration: 1s; animation-delay: -0.227273s;">p8a18u</d:slug>
</metadata></g></g><style type="text/css" class="ld ld-fade" style="transform-origin: 50px 50px 0px; animation-duration: 1s; animation-delay: -0.181818s;">path,ellipse,circle,rect,polygon,polyline,line { stroke-width: 0; }@keyframes ld-fade {
  0% {
    opacity: 1;
  }
  100% {
    opacity: 0;
  }
}
@-webkit-keyframes ld-fade {
  0% {
    opacity: 1;
  }
  100% {
    opacity: 0;
  }
}
.ld.ld-fade {
  -webkit-animation: ld-fade 1s infinite linear;
  animation: ld-fade 1s infinite linear;
}
</style></svg></svg>