<svg class="ldi-paql5d" width="200px"  height="200px"  xmlns="http://www.w3.org/2000/svg" xmlns:xlink="http://www.w3.org/1999/xlink" viewBox="0 0 100 100" preserveAspectRatio="xMidYMid" style="background: none;"><!--?xml version="1.0" encoding="utf-8"?--><!--Generator: Adobe Illustrator 21.0.0, SVG Export Plug-In . SVG Version: 6.00 Build 0)--><svg version="1.1" id="圖層_1" xmlns="http://www.w3.org/2000/svg" xmlns:xlink="http://www.w3.org/1999/xlink" x="0px" y="0px" viewBox="0 0 100 100" style="transform-origin: 50px 50px 0px;" xml:space="preserve" class=""><g class="" style="transform-origin: 50px 50px 0px; transform: scale(0.6);"><g class="" style="transform-origin: 50px 50px 0px;"><style type="text/css" class="ld ld-bounce-px" style="transform-origin: 50px 50px 0px; animation-duration: 1s; animation-delay: -1s;">.st0{fill:#e15b64}.st1{fill:#f47e60}.st2{fill:#f8b26a}.st3{fill:#abbd81}.st4{fill:#a0c8d7}.st5{fill:#f47e60;stroke:#333}.st10,.st5,.st6,.st7,.st8,.st9{stroke-width:3.5;stroke-linecap:round;stroke-linejoin:round;stroke-miterlimit:10}.st6{opacity:.2;stroke:#000}.st10,.st7,.st8,.st9{fill:none;stroke:#fff}.st10,.st8,.st9{fill:#a0c8d7;stroke:#333}.st10,.st9{fill:#77a4bd}.st10{fill:#e0e0e0}.st11{fill:#fff}.st11,.st12,.st13,.st14,.st15,.st16{stroke:#333;stroke-width:3.5;stroke-miterlimit:10}.st12{stroke-linecap:round;fill:none}.st13,.st14,.st15,.st16{fill:#fff;stroke-linejoin:round}.st14,.st15,.st16{fill:none;stroke-linecap:round}.st15,.st16{fill:#e15b64}.st16{fill:#c33737}.st17{opacity:.2}.st18,.st19{stroke:#000;stroke-width:3.5;stroke-linecap:round;stroke-linejoin:round;stroke-miterlimit:10}.st19{fill:none;stroke:#fff;stroke-width:5}.st20{fill:#333}.st21{fill:#fff}.st22{fill:#333;stroke:#fff;stroke-width:3.5;stroke-miterlimit:10}.st23{opacity:.2;stroke:#000}.st23,.st24,.st25{stroke-width:3.5;stroke-miterlimit:10}.st24{opacity:.2;stroke-linejoin:round;stroke:#000}.st25{fill:#666;stroke:#333}.st26{fill:none;stroke:#333}.st26,.st27,.st28,.st29,.st30,.st31,.st32{stroke-width:3.5;stroke-miterlimit:10}.st27{fill:none;stroke-linecap:round;stroke:#fff}.st28,.st29,.st30,.st31,.st32{stroke:#333;stroke-linejoin:round}.st28{stroke-linecap:round;fill:#849b87}.st29,.st30,.st31,.st32{fill:#e0e0e0}.st30,.st31,.st32{fill:#abbd81;stroke-linecap:round}.st31,.st32{fill:#f5e6c8}.st32{fill:#fff}.st33{fill:#f5e169}.st34{fill:#f5e6c8}.st35,.st36{stroke-linecap:round}.st35{opacity:.2;stroke:#000;stroke-width:3.5;stroke-miterlimit:10}.st36{fill:#666;stroke-linejoin:round}.st36,.st37,.st38,.st39{stroke:#333;stroke-width:3.5;stroke-miterlimit:10}.st37{stroke-linecap:round;stroke-linejoin:round;fill:#333}.st38,.st39{fill:#e15b64}.st39{fill:#f5e169}</style><g class="ld ld-bounce-px" style="transform-origin: 50px 50px 0px; animation-duration: 1s; animation-delay: -0.952381s;"><path class="st0" d="M20,40.8c0,2.1,0.3,4.1,0.7,6l22.4-22.4C34.3,19.7,20,25.4,20,40.8z" fill="rgb(225, 91, 100)" style="fill: rgb(225, 91, 100);"></path></g><g class="ld ld-bounce-px" style="transform-origin: 50px 50px 0px; animation-duration: 1s; animation-delay: -0.904762s;"><path class="st1" d="M50.9,31.4c-0.3,0.8-1.4,0.8-1.7,0c-1.1-3.3-3.3-5.6-6-7L20.7,46.8c1,4.2,3.1,8.1,5.6,11.5l35.4-35.4 C57,23.4,52.6,26.2,50.9,31.4z" fill="rgb(244, 126, 96)" style="fill: rgb(244, 126, 96);"></path></g><g class="ld ld-bounce-px" style="transform-origin: 50px 50px 0px; animation-duration: 1s; animation-delay: -0.857143s;"><path class="st2" d="M61.7,22.9L26.3,58.3c2.5,3.3,5.4,6.3,8.3,8.8l39.9-39.9C71,23.9,66.2,22.4,61.7,22.9z" fill="rgb(248, 178, 106)" style="fill: rgb(248, 178, 106);"></path></g><g class="ld ld-bounce-px" style="transform-origin: 50px 50px 0px; animation-duration: 1s; animation-delay: -0.809524s;"><path class="st3" d="M74.6,27.2L34.7,67.1c3.6,3,7.1,5.5,10,7.2l35.3-35.3C79.5,33.8,77.4,29.9,74.6,27.2z" fill="rgb(171, 189, 129)" style="fill: rgb(171, 189, 129);"></path></g><g class="ld ld-bounce-px" style="transform-origin: 50px 50px 0px; animation-duration: 1s; animation-delay: -0.761905s;"><path class="st4" d="M50,77.2c0,0,30-14.1,30-36.4c0-0.6,0-1.3-0.1-1.9L44.6,74.2C47.8,76.2,50,77.2,50,77.2z" fill="#a0c8d7" style="fill: rgb(160, 200, 215);"></path></g><g class="ld ld-bounce-px" style="transform-origin: 50px 50px 0px; animation-duration: 1s; animation-delay: -0.714286s;"><path class="st34" d="M50,41.6l-6.2-0.4c-4.8-0.3-8.6-4.2-8.9-9L34.4,25c0-0.4-0.4-0.8-0.8-0.8h-0.2c-0.4,0-0.8,0.3-0.8,0.8 l-0.4,7.2c-0.3,4.8-4.1,8.7-8.9,9l-6.2,0.4c-0.4,0-0.7,0.3-0.8,0.7c-0.1,0.5,0.3,0.9,0.8,1l6.3,0.4c4.8,0.3,8.6,4.2,8.9,9l0.4,7.2 c0,0.4,0.4,0.8,0.8,0.8h0.2c0.4,0,0.8-0.3,0.8-0.8l0.4-7.2c0.3-4.8,4.1-8.7,8.9-9l6.3-0.4c0.5,0,0.9-0.5,0.8-1 C50.7,42,50.4,41.7,50,41.6z" fill="#fff956" style="fill: rgb(255, 249, 86);"></path></g><g class="ld ld-bounce-px" style="transform-origin: 50px 50px 0px; animation-duration: 1s; animation-delay: -0.666667s;"><path class="st34" d="M30.7,75.9l-3.7-0.3c-2.9-0.2-5.2-2.5-5.4-5.4l-0.3-4.3c0-0.3-0.2-0.5-0.5-0.5h-0.1c-0.3,0-0.5,0.2-0.5,0.5 l-0.3,4.3c-0.2,2.9-2.5,5.2-5.4,5.4l-3.7,0.3c-0.2,0-0.4,0.2-0.5,0.4c-0.1,0.3,0.2,0.6,0.5,0.6l3.8,0.3c2.9,0.2,5.2,2.5,5.4,5.4 l0.3,4.3c0,0.3,0.2,0.5,0.5,0.5h0.1c0.3,0,0.5-0.2,0.5-0.5l0.3-4.3c0.2-2.9,2.5-5.2,5.4-5.4l3.8-0.3c0.3,0,0.5-0.3,0.5-0.6 C31.1,76,30.9,75.9,30.7,75.9z" fill="#fff956" style="fill: rgb(255, 249, 86);"></path></g><g class="ld ld-bounce-px" style="transform-origin: 50px 50px 0px; animation-duration: 1s; animation-delay: -0.619048s;"><path class="st34" d="M66.9,68.3l-2.3-0.2c-1.8-0.1-3.2-1.6-3.4-3.4L61.1,62c0-0.2-0.1-0.3-0.3-0.3h-0.1c-0.2,0-0.3,0.1-0.3,0.3 l-0.2,2.7c-0.1,1.8-1.5,3.3-3.4,3.4l-2.3,0.2c-0.1,0-0.3,0.1-0.3,0.3c0,0.2,0.1,0.4,0.3,0.4l2.4,0.2c1.8,0.1,3.2,1.6,3.4,3.4 l0.2,2.7c0,0.2,0.1,0.3,0.3,0.3h0.1c0.2,0,0.3-0.1,0.3-0.3l0.2-2.7c0.1-1.8,1.5-3.3,3.4-3.4l2.4-0.2c0.2,0,0.3-0.2,0.3-0.4 C67.2,68.4,67.1,68.3,66.9,68.3z" fill="#fff956" style="fill: rgb(255, 249, 86);"></path></g><g class="ld ld-bounce-px" style="transform-origin: 50px 50px 0px; animation-duration: 1s; animation-delay: -0.571429s;"><path class="st34" d="M83.3,78.3L79.8,78c-2.7-0.2-4.8-2.3-5-5l-0.2-4c0-0.2-0.2-0.4-0.5-0.4h-0.1c-0.2,0-0.5,0.2-0.5,0.4l-0.2,4 c-0.2,2.7-2.3,4.8-5,5l-3.5,0.2c-0.2,0-0.4,0.2-0.5,0.4c0,0.3,0.2,0.5,0.4,0.5l3.5,0.2c2.7,0.2,4.8,2.3,5,5l0.2,4 c0,0.2,0.2,0.4,0.5,0.4h0.1c0.2,0,0.5-0.2,0.5-0.4l0.2-4c0.2-2.7,2.3-4.8,5-5l3.5-0.2c0.3,0,0.5-0.3,0.4-0.5 C83.7,78.4,83.5,78.3,83.3,78.3z" fill="#fff956" style="fill: rgb(255, 249, 86);"></path></g><g class="ld ld-bounce-px" style="transform-origin: 50px 50px 0px; animation-duration: 1s; animation-delay: -0.52381s;"><path class="st34" d="M19.8,13.5l-1.4-0.1c-1.1-0.1-1.9-0.9-2-2l-0.1-1.6c0-0.1-0.1-0.2-0.2-0.2h0c-0.1,0-0.2,0.1-0.2,0.2l-0.1,1.6 c-0.1,1.1-0.9,1.9-2,2l-1.4,0.1c-0.1,0-0.2,0.1-0.2,0.2c0,0.1,0.1,0.2,0.2,0.2l1.4,0.1c1.1,0.1,1.9,0.9,2,2l0.1,1.6 c0,0.1,0.1,0.2,0.2,0.2h0c0.1,0,0.2-0.1,0.2-0.2l0.1-1.6c0.1-1.1,0.9-1.9,2-2l1.4-0.1c0.1,0,0.2-0.1,0.2-0.2 C20,13.6,19.9,13.5,19.8,13.5z" fill="#fff956" style="fill: rgb(255, 249, 86);"></path></g><g class="ld ld-bounce-px" style="transform-origin: 50px 50px 0px; animation-duration: 1s; animation-delay: -0.47619s;"><path class="st34" d="M86.2,18.6l-2.3-0.2c-1.8-0.1-3.2-1.6-3.4-3.4l-0.2-2.7c0-0.2-0.1-0.3-0.3-0.3H80c-0.2,0-0.3,0.1-0.3,0.3 L79.5,15c-0.1,1.8-1.5,3.3-3.4,3.4l-2.3,0.2c-0.1,0-0.3,0.1-0.3,0.3c0,0.2,0.1,0.4,0.3,0.4l2.4,0.2c1.8,0.1,3.2,1.6,3.4,3.4l0.2,2.7 c0,0.2,0.1,0.3,0.3,0.3H80c0.2,0,0.3-0.1,0.3-0.3l0.2-2.7c0.1-1.8,1.5-3.3,3.4-3.4l2.4-0.2c0.2,0,0.3-0.2,0.3-0.4 C86.5,18.7,86.4,18.6,86.2,18.6z" fill="#fff956" style="fill: rgb(255, 249, 86);"></path></g><metadata xmlns:d="https://loading.io/stock/" class="ld ld-bounce-px" style="transform-origin: 50px 50px 0px; animation-duration: 1s; animation-delay: -0.428571s;">
<d:name class="ld ld-bounce-px" style="transform-origin: 50px 50px 0px; animation-duration: 1s; animation-delay: -0.380952s;">heart</d:name>
<d:tags class="ld ld-bounce-px" style="transform-origin: 50px 50px 0px; animation-duration: 1s; animation-delay: -0.333333s;">heart,love,lgbt,gay,lesbian,homosexual,affection</d:tags>
<d:license class="ld ld-bounce-px" style="transform-origin: 50px 50px 0px; animation-duration: 1s; animation-delay: -0.285714s;">cc-by</d:license>
<d:slug class="ld ld-bounce-px" style="transform-origin: 50px 50px 0px; animation-duration: 1s; animation-delay: -0.238095s;">paql5d</d:slug>
</metadata></g></g><style type="text/css" class="ld ld-bounce-px" style="transform-origin: 50px 50px 0px; animation-duration: 1s; animation-delay: -0.190476s;">path,ellipse,circle,rect,polygon,polyline,line { stroke-width: 0; }@keyframes ld-bounce-px {
  0%, 90% {
    animation-timing-function: linear;
  }
  10% {
    animation-timing-function: cubic-bezier(0, 0.4, 0.6, 1);
  }
  50% {
    animation-timing-function: cubic-bezier(0.4, 0, 1, 0.6);
  }
  0% {
    -webkit-transform: translate(0, 30px) scaleY(0.5);
    transform: translate(0, 30px) scaleY(0.5);
  }
  10% {
    -webkit-transform: translate(0, 5px) scaleY(1.1);
    transform: translate(0, 5px) scaleY(1.1);
  }
  50% {
    -webkit-transform: translate(0, -37px) scaleY(1.1);
    transform: translate(0, -37px) scaleY(1.1);
  }
  90% {
    -webkit-transform: translate(0, 5px) scaleY(1.1);
    transform: translate(0, 5px) scaleY(1.1);
  }
  100% {
    -webkit-transform: translate(0, 30px) scaleY(0.5);
    transform: translate(0, 30px) scaleY(0.5);
  }
}
@-webkit-keyframes ld-bounce-px {
  0%, 90% {
    animation-timing-function: linear;
  }
  10% {
    animation-timing-function: cubic-bezier(0, 0.4, 0.6, 1);
  }
  50% {
    animation-timing-function: cubic-bezier(0.4, 0, 1, 0.6);
  }
  0% {
    -webkit-transform: translate(0, 30px) scaleY(0.5);
    transform: translate(0, 30px) scaleY(0.5);
  }
  10% {
    -webkit-transform: translate(0, 5px) scaleY(1.1);
    transform: translate(0, 5px) scaleY(1.1);
  }
  50% {
    -webkit-transform: translate(0, -37px) scaleY(1.1);
    transform: translate(0, -37px) scaleY(1.1);
  }
  90% {
    -webkit-transform: translate(0, 5px) scaleY(1.1);
    transform: translate(0, 5px) scaleY(1.1);
  }
  100% {
    -webkit-transform: translate(0, 30px) scaleY(0.5);
    transform: translate(0, 30px) scaleY(0.5);
  }
}
.ld.ld-bounce-px {
  -webkit-animation: ld-bounce-px 1s infinite;
  animation: ld-bounce-px 1s infinite;
}
</style></svg></svg>